<svg width="284" height="93" viewBox="0 0 284 93" fill="none" xmlns="http://www.w3.org/2000/svg">
<path d="M97.4917 44.0484H103.029V74.253H112.141V79.2871H97.4917V44.0484Z" fill="white"/>
<path d="M114.796 44.0484H120.334V79.2871H114.796V44.0484Z" fill="white"/>
<path d="M124.481 44.0484H132.838C135.69 44.0484 137.771 44.7196 139.08 46.062C140.389 47.3709 141.043 49.4013 141.043 52.1533V53.5629C141.043 55.3751 140.741 56.8518 140.137 57.9929C139.567 59.1339 138.677 59.9562 137.469 60.4596V60.5603C140.221 61.5 141.597 63.9499 141.597 67.91V70.9305C141.597 73.6489 140.876 75.7297 139.432 77.1728C138.023 78.5823 135.942 79.2871 133.19 79.2871H124.481V44.0484ZM132.183 58.3956C133.291 58.3956 134.113 58.1103 134.65 57.5398C135.221 56.9693 135.506 56.0128 135.506 54.6704V52.7071C135.506 51.4318 135.271 50.5088 134.801 49.9383C134.365 49.3678 133.66 49.0825 132.687 49.0825H130.019V58.3956H132.183ZM133.19 74.253C134.163 74.253 134.885 74.0013 135.355 73.4979C135.825 72.9609 136.06 72.0548 136.06 70.7795V67.7087C136.06 66.0978 135.774 64.9903 135.204 64.3862C134.667 63.7485 133.761 63.4297 132.485 63.4297H130.019V74.253H133.19Z" fill="white"/>
<path d="M144.834 44.0484H153.039C155.892 44.0484 157.973 44.7196 159.282 46.062C160.591 47.3709 161.245 49.4013 161.245 52.1533V54.318C161.245 57.9761 160.037 60.2918 157.621 61.265V61.3657C158.963 61.7684 159.903 62.5907 160.44 63.8324C161.01 65.0742 161.295 66.7354 161.295 68.8162V75.0081C161.295 76.015 161.329 76.8372 161.396 77.4748C161.463 78.0789 161.631 78.683 161.9 79.2871H156.261C156.06 78.7166 155.926 78.1796 155.859 77.6762C155.791 77.1728 155.758 76.2667 155.758 74.9578V68.5141C155.758 66.9032 155.489 65.7789 154.952 65.1413C154.449 64.5036 153.56 64.1848 152.284 64.1848H150.371V79.2871H144.834V44.0484ZM152.385 59.1507C153.493 59.1507 154.315 58.8654 154.852 58.2949C155.422 57.7244 155.708 56.7679 155.708 55.4255V52.7071C155.708 51.4318 155.473 50.5088 155.003 49.9383C154.566 49.3678 153.862 49.0825 152.888 49.0825H150.371V59.1507H152.385Z" fill="white"/>
<path d="M169.416 44.0484H176.917L182.656 79.2871H177.119L176.112 72.2897V72.3904H169.819L168.812 79.2871H163.678L169.416 44.0484ZM175.457 67.608L172.991 50.19H172.89L170.474 67.608H175.457Z" fill="white"/>
<path d="M185.343 44.0484H193.548C196.401 44.0484 198.482 44.7196 199.791 46.062C201.099 47.3709 201.754 49.4013 201.754 52.1533V54.318C201.754 57.9761 200.546 60.2918 198.129 61.265V61.3657C199.472 61.7684 200.411 62.5907 200.948 63.8324C201.519 65.0742 201.804 66.7354 201.804 68.8162V75.0081C201.804 76.015 201.838 76.8372 201.905 77.4748C201.972 78.0789 202.14 78.683 202.408 79.2871H196.77C196.569 78.7166 196.434 78.1796 196.367 77.6762C196.3 77.1728 196.267 76.2667 196.267 74.9578V68.5141C196.267 66.9032 195.998 65.7789 195.461 65.1413C194.958 64.5036 194.068 64.1848 192.793 64.1848H190.88V79.2871H185.343V44.0484ZM192.894 59.1507C194.001 59.1507 194.824 58.8654 195.361 58.2949C195.931 57.7244 196.216 56.7679 196.216 55.4255V52.7071C196.216 51.4318 195.981 50.5088 195.512 49.9383C195.075 49.3678 194.371 49.0825 193.397 49.0825H190.88V59.1507H192.894Z" fill="white"/>
<path d="M209.944 64.2855L203.249 44.0484H209.139L212.914 56.986H213.015L216.79 44.0484H222.177L215.482 64.2855V79.2871H209.944V64.2855Z" fill="white"/>
<path d="M224.672 44.0484H230.209V58.3956H236.149V44.0484H241.687V79.2871H236.149V63.4297H230.209V79.2871H224.672V44.0484Z" fill="white"/>
<path d="M253.865 79.7905C251.181 79.7905 249.133 79.0354 247.724 77.5252C246.314 75.9814 245.61 73.7832 245.61 70.9305V44.0484H251.147V71.3332C251.147 72.5414 251.382 73.414 251.852 73.951C252.355 74.4879 253.06 74.7564 253.966 74.7564C254.872 74.7564 255.56 74.4879 256.03 73.951C256.534 73.414 256.785 72.5414 256.785 71.3332V44.0484H262.121V70.9305C262.121 73.7832 261.417 75.9814 260.007 77.5252C258.598 79.0354 256.55 79.7905 253.865 79.7905Z" fill="white"/>
<path d="M266.065 44.0484H274.422C277.275 44.0484 279.355 44.7196 280.664 46.062C281.973 47.3709 282.628 49.4013 282.628 52.1533V53.5629C282.628 55.3751 282.325 56.8518 281.721 57.9929C281.151 59.1339 280.261 59.9562 279.053 60.4596V60.5603C281.805 61.5 283.181 63.9499 283.181 67.91V70.9305C283.181 73.6489 282.46 75.7297 281.017 77.1728C279.607 78.5823 277.526 79.2871 274.774 79.2871H266.065V44.0484ZM273.767 58.3956C274.875 58.3956 275.697 58.1103 276.234 57.5398C276.805 56.9693 277.09 56.0128 277.09 54.6704V52.7071C277.09 51.4318 276.855 50.5088 276.385 49.9383C275.949 49.3678 275.244 49.0825 274.271 49.0825H271.603V58.3956H273.767ZM274.774 74.253C275.748 74.253 276.469 74.0013 276.939 73.4979C277.409 72.9609 277.644 72.0548 277.644 70.7795V67.7087C277.644 66.0978 277.358 64.9903 276.788 64.3862C276.251 63.7485 275.345 63.4297 274.07 63.4297H271.603V74.253H274.774Z" fill="white"/>
<path d="M74.1067 37.1266C61.5084 36.9123 55.1723 38.8859 45.1606 45.9362V89.3554C56.8393 83.4765 63.1698 81.931 74.1067 81.8042V37.1266Z" stroke="white" stroke-width="5" stroke-linejoin="round"/>
<path d="M3 37.7712C15.5983 37.5569 21.9345 39.5305 31.9461 46.5808V90C20.2675 84.1211 13.9369 82.5756 3 82.4488V37.7712Z" fill="white" stroke="white" stroke-width="5" stroke-linejoin="round"/>
<path d="M54.5996 16.9901C54.5996 26.3735 46.9929 33.9802 37.6095 33.9802C28.2261 33.9802 20.6194 26.3735 20.6194 16.9901C20.6194 7.60673 28.2261 0 37.6095 0C46.9929 0 54.5996 7.60673 54.5996 16.9901Z" fill="white"/>
</svg>
