<svg width="100" height="100" viewBox="0 0 100 100" fill="none" xmlns="http://www.w3.org/2000/svg">
<rect width="100" height="100" rx="25" fill="#260534"/>
<path d="M72.9999 37.9735C65.2042 37.8409 61.2834 39.0622 55.0884 43.4249V70.2921C62.315 66.6543 66.2323 65.698 72.9999 65.6195V37.9735Z" stroke="white" stroke-width="4" stroke-linejoin="round"/>
<path d="M29.0001 38.3723C36.7958 38.2397 40.7166 39.461 46.9116 43.8237V70.6909C39.685 67.0531 35.7677 66.0968 29.0001 66.0184V38.3723Z" fill="white" stroke="white" stroke-width="4" stroke-linejoin="round"/>
<circle cx="50.4161" cy="25.5133" r="10.5133" fill="white"/>
<path d="M27.8163 80.4H28.6963V85.2H30.1443V86H27.8163V80.4ZM32.5663 80.4H33.4463V86H32.5663V80.4ZM36.1053 80.4H37.4333C37.8867 80.4 38.2173 80.5067 38.4253 80.72C38.6333 80.928 38.7373 81.2507 38.7373 81.688V81.912C38.7373 82.2 38.6893 82.4347 38.5933 82.616C38.5027 82.7973 38.3613 82.928 38.1693 83.008V83.024C38.6067 83.1733 38.8253 83.5627 38.8253 84.192V84.672C38.8253 85.104 38.7107 85.4347 38.4813 85.664C38.2573 85.888 37.9267 86 37.4893 86H36.1053V80.4ZM37.3293 82.68C37.5053 82.68 37.636 82.6347 37.7213 82.544C37.812 82.4533 37.8573 82.3013 37.8573 82.088V81.776C37.8573 81.5733 37.82 81.4267 37.7453 81.336C37.676 81.2453 37.564 81.2 37.4093 81.2H36.9853V82.68H37.3293ZM37.4893 85.2C37.644 85.2 37.7587 85.16 37.8333 85.08C37.908 84.9947 37.9453 84.8507 37.9453 84.648V84.16C37.9453 83.904 37.9 83.728 37.8093 83.632C37.724 83.5307 37.58 83.48 37.3773 83.48H36.9853V85.2H37.4893ZM41.3397 80.4H42.6437C43.0971 80.4 43.4277 80.5067 43.6357 80.72C43.8437 80.928 43.9477 81.2507 43.9477 81.688V82.032C43.9477 82.6133 43.7557 82.9813 43.3717 83.136V83.152C43.5851 83.216 43.7344 83.3467 43.8197 83.544C43.9104 83.7413 43.9557 84.0053 43.9557 84.336V85.32C43.9557 85.48 43.9611 85.6107 43.9717 85.712C43.9824 85.808 44.0091 85.904 44.0517 86H43.1557C43.1237 85.9093 43.1024 85.824 43.0917 85.744C43.0811 85.664 43.0757 85.52 43.0757 85.312V84.288C43.0757 84.032 43.0331 83.8533 42.9477 83.752C42.8677 83.6507 42.7264 83.6 42.5237 83.6H42.2197V86H41.3397V80.4ZM42.5397 82.8C42.7157 82.8 42.8464 82.7547 42.9317 82.664C43.0224 82.5733 43.0677 82.4213 43.0677 82.208V81.776C43.0677 81.5733 43.0304 81.4267 42.9557 81.336C42.8864 81.2453 42.7744 81.2 42.6197 81.2H42.2197V82.8H42.5397ZM47.2463 80.4H48.4383L49.3503 86H48.4703L48.3103 84.888V84.904H47.3103L47.1503 86H46.3343L47.2463 80.4ZM48.2063 84.144L47.8143 81.376H47.7983L47.4143 84.144H48.2063ZM51.7772 80.4H53.0812C53.5346 80.4 53.8652 80.5067 54.0732 80.72C54.2812 80.928 54.3852 81.2507 54.3852 81.688V82.032C54.3852 82.6133 54.1932 82.9813 53.8092 83.136V83.152C54.0226 83.216 54.1719 83.3467 54.2572 83.544C54.3479 83.7413 54.3932 84.0053 54.3932 84.336V85.32C54.3932 85.48 54.3986 85.6107 54.4092 85.712C54.4199 85.808 54.4466 85.904 54.4892 86H53.5932C53.5612 85.9093 53.5399 85.824 53.5292 85.744C53.5186 85.664 53.5132 85.52 53.5132 85.312V84.288C53.5132 84.032 53.4706 83.8533 53.3852 83.752C53.3052 83.6507 53.1639 83.6 52.9612 83.6H52.6572V86H51.7772V80.4ZM52.9772 82.8C53.1532 82.8 53.2839 82.7547 53.3692 82.664C53.4599 82.5733 53.5052 82.4213 53.5052 82.208V81.776C53.5052 81.5733 53.4679 81.4267 53.3932 81.336C53.3239 81.2453 53.2119 81.2 53.0572 81.2H52.6572V82.8H52.9772ZM57.6868 83.616L56.6228 80.4H57.5588L58.1588 82.456H58.1748L58.7748 80.4H59.6308L58.5668 83.616V86H57.6868V83.616ZM62.0272 80.4H62.9072V82.68H63.8512V80.4H64.7312V86H63.8512V83.48H62.9072V86H62.0272V80.4ZM68.6666 86.08C68.2399 86.08 67.9146 85.96 67.6906 85.72C67.4666 85.4747 67.3546 85.1253 67.3546 84.672V80.4H68.2346V84.736C68.2346 84.928 68.2719 85.0667 68.3466 85.152C68.4266 85.2373 68.5386 85.28 68.6826 85.28C68.8266 85.28 68.9359 85.2373 69.0106 85.152C69.0906 85.0667 69.1306 84.928 69.1306 84.736V80.4H69.9786V84.672C69.9786 85.1253 69.8666 85.4747 69.6426 85.72C69.4186 85.96 69.0933 86.08 68.6666 86.08ZM72.6053 80.4H73.9333C74.3867 80.4 74.7173 80.5067 74.9253 80.72C75.1333 80.928 75.2373 81.2507 75.2373 81.688V81.912C75.2373 82.2 75.1893 82.4347 75.0933 82.616C75.0027 82.7973 74.8613 82.928 74.6693 83.008V83.024C75.1067 83.1733 75.3253 83.5627 75.3253 84.192V84.672C75.3253 85.104 75.2107 85.4347 74.9813 85.664C74.7573 85.888 74.4267 86 73.9893 86H72.6053V80.4ZM73.8293 82.68C74.0053 82.68 74.136 82.6347 74.2213 82.544C74.312 82.4533 74.3573 82.3013 74.3573 82.088V81.776C74.3573 81.5733 74.32 81.4267 74.2453 81.336C74.176 81.2453 74.064 81.2 73.9093 81.2H73.4853V82.68H73.8293ZM73.9893 85.2C74.144 85.2 74.2587 85.16 74.3333 85.08C74.408 84.9947 74.4453 84.8507 74.4453 84.648V84.16C74.4453 83.904 74.4 83.728 74.3093 83.632C74.224 83.5307 74.08 83.48 73.8773 83.48H73.4853V85.2H73.9893Z" fill="white"/>
</svg>
